# xmcd
#
# Track frame offsets:
#	150
#	17629
#	31973
#	47515
#	63095
#	83168
#	98228
#	121918
#	138908
#	158132
#
# Disc length: 2425 seconds
# Revision: 0
# Processed by: cddbd v1.5.2PL0 Copyright (c) Steve Scherf et al.
# Submitted via: dBpowerAMP V12.0
#
DISCID=7109770a
DTITLE=Sinead Burgess - Damaged Goods
DYEAR=2018
DGENRE=Country
TTITLE0=Somewhere Between You And Vegas
TTITLE1=Praising God, Raising Hell
TTITLE2=Damaged Goods
TTITLE3=Tennesse Bound
TTITLE4=If I Could Love You
TTITLE5=Nothing Left To Lose
TTITLE6=Wildflowers Of Colorado
TTITLE7=Momma Raised A Ramblin' Man
TTITLE8=Gonna Be Alright
TTITLE9=Richie
EXTD=
EXTT0=
EXTT1=
EXTT2=
EXTT3=
EXTT4=
EXTT5=
EXTT6=
EXTT7=
EXTT8=
EXTT9=
PLAYORDER=
